<svg xmlns="http://www.w3.org/2000/svg" width="180.942" height="84" viewBox="0 0 180.942 84">
  <g id="Group_1" data-name="Group 1" transform="translate(-19 -42.233)">
    <g id="Group_1-2" data-name="Group 1" transform="translate(132.882 47.312)">
      <path id="Path_1" data-name="Path 1" d="M244.711,312.83l16.831,59.347-15.452,4.3L231.28,323.25l-1.726-6.2Z" transform="translate(-213.009 -297.555)" fill="#fff"/>
      <path id="Path_2" data-name="Path 2" d="M286.582,338.6l13,45.587-15.452,4.3-11.382-40.9-1.326-4.767Z" transform="translate(-232.524 -309.566)" fill="#fff"/>
      <path id="Path_3" data-name="Path 3" d="M198.567,363.142V292.459c0-4.549,1.815-8.237,4.054-8.237H214.3l.3,78.92Z" transform="translate(-198.567 -284.222)" fill="#fff"/>
      <path id="Path_4" data-name="Path 4" d="M198.567,284.222v38.842l8.019-8.019,7.864,8.019-.15-38.842Z" transform="translate(-198.567 -284.222)" fill="#c7c7c7"/>
      <path id="Path_5" data-name="Path 5" d="M229.555,317.034l9.967,35.819,5.824-9.944,9.623,5.976L244.776,312.8Z" transform="translate(-213.01 -297.54)" fill="#c7c7c7"/>
      <path id="Path_6" data-name="Path 6" d="M268.741,334.263l7.569,27.2,5.576-9.876,9.724,5.833-7.453-27.587Z" transform="translate(-231.274 -305.481)" fill="#c7c7c7"/>
    </g>
    <text id="THE_LITTLE_BOOK_COMAPNY" data-name="THE 
LITTLE 
BOOK 
COMAPNY" transform="translate(121 60.233)" fill="#fff" font-size="17" font-family="SegoeUI, Segoe UI" letter-spacing="0.2em"><tspan x="-44.432" y="0">THE </tspan><tspan x="-72.33" y="20">LITTLE </tspan><tspan x="-63.496" y="40">BOOK </tspan><tspan x="-101.15" y="60">COMAPNY</tspan></text>
  </g>
</svg>
